<?xml version="1.0" encoding="UTF-8" standalone="no"?>
<svg
   class="img-fluid"
   id="outputsvg"
   width="2146.3264"
   height="2146.3264"
   viewBox="0 0 21463.265 21463.265"
   version="1.1"
   xmlns="http://www.w3.org/2000/svg"
   xmlns:svg="http://www.w3.org/2000/svg">
  <defs
     id="defs4" />
  <rect
     style="fill:#ffffff;fill-opacity:1;stroke:#495d6b;stroke-width:411.175;stroke-linecap:round;stroke-linejoin:round;stroke-dasharray:none;stroke-opacity:1"
     id="rect8"
     width="21052.09"
     height="21052.09"
     x="205.58754"
     y="205.58751"
     rx="5000"
     ry="5000" />
  <g
     id="l5IQP6JwKJaEQV4GKUGwDIg"
     fill="#9ac1de"
     transform="matrix(1.3064437,0,0,1.3064437,-6497.4437,9477.3033)">
    <path
       id="pR2jHTpXC"
       d="M 10052.9,1362.9312 C 9703.5163,1337.631 9434.8518,1238.8396 9161.3683,1035.2329 8845.7177,799.0973 8619.2204,481.0372 8518.0194,130.4482 c -56.6243,-192.763695 -71.0816,-321.6744 -72.2864,-597.5675 -1.2047,-271.074 8.4334,-354.2033 66.2626,-540.9432 66.2625,-220.4735 255.4119,-515.6429 434.9231,-681.9016 360.2272,-333.7222 698.7684,-463.8377 1209.5923,-463.8377 106.02,0 212.04,-6.0238 236.135,-12.0477 93.973,-26.505 133.73,-114.4535 167.464,-373.4797 46.986,-374.6845 148.187,-714.4305 283.121,-955.3851 202.402,-363.8416 571.063,-759.0072 890.328,-957.7947 443.356,-274.6883 1008.395,-404.8038 1583.072,-366.2511 450.585,31.3241 792.741,133.7298 1148.149,343.3604 325.288,192.7637 650.577,512.0286 850.57,836.1126 139.753,226.4973 262.64,546.967 322.879,839.7269 55.419,274.6883 67.467,284.3265 395.165,298.7837 268.665,10.843 426.49,33.7337 585.52,84.3342 387.937,122.8868 779.488,431.3088 1030.081,810.8123 79.515,121.6821 112.044,186.7399 168.669,337.3365 80.719,216.8592 103.61,344.5652 110.839,602.3866 7.228,260.231 -10.843,425.285 -68.672,649.372805 -183.126,707.201895 -746.96,1231.278195 -1451.752,1350.550695 -195.173,32.5289 -425.285,42.1671 -996.348,42.1671 l -4549.223,-1.2048 c -368.661,-1.2047 -733.707,-7.2286 -809.608,-12.0477 z"
       style="fill:#9ac1de;fill-opacity:1;stroke:#495d6b;stroke-width:481.909;stroke-dasharray:none;stroke-opacity:1" />
  </g>
  <g
     id="l7BpJYkaCGfdyPxyFtxT9O0"
     fill="#495d6b"
     transform="matrix(1.6388735,0,0,1.6388735,-4042.3947,2158.0989)">
    <path
       id="rect6"
       style="fill:#859fae;fill-opacity:1;stroke-width:283.446;stroke-linecap:round;stroke-linejoin:round"
       d="m 9002.1546,5705.8922 v 0 c 0,0 924.519,-803.9282 925.6613,-724.8771 l 25.1847,1742.8913 c 1.1423,79.0519 -568.2877,737.9777 -647.3312,739.556 l -613.8816,12.2564 c -79.0435,1.5783 -567.5653,-564.7095 -569.4976,-643.7454 l -45.799,-1873.2453 c -1.9323,-79.0352 925.6634,747.1641 925.6634,747.1641 z" />
    <rect
       style="fill:#ffffff;fill-opacity:1;stroke:none;stroke-width:343.984;stroke-linecap:round;stroke-linejoin:round;stroke-dasharray:none;stroke-opacity:1"
       id="rect5"
       width="1454.42"
       height="1535.613"
       x="6063.02"
       y="10946.939"
       rx="189.10832"
       transform="matrix(0.5423301,-0.8401655,0.45393042,0.89103713,0,0)" />
    <path
       id="path5-2"
       style="fill:none;fill-opacity:1;stroke:#495d6b;stroke-width:318.864;stroke-linecap:round;stroke-linejoin:round;stroke-dasharray:none;stroke-opacity:1"
       d="m 9002.1544,5843.8008 c 0,0 532.9714,-957.7936 925.6631,-885.0727 m -925.6631,885.0727 c 0,0 -532.9713,-957.7936 -925.6632,-885.0727 m 925.6634,747.1641 c 84.6034,0 0.6939,52.5504 -2e-4,137.9086 l -14.1974,1745.9104 c -0.6941,85.3582 84.3187,162.9218 -0.2847,162.9218 -84.6034,0 -0.4094,-77.5636 0.2847,-162.9218 l 14.1974,-1745.9104 c 0.6941,-85.3582 -84.6032,-137.9086 2e-4,-137.9086 z m -16.7867,-2247.7759 -908.8767,1500.6118 v 1759.2843 l 908.8797,1111.3847 967.6327,-1105.4907 -25.1831,-1765.1783 z" />
  </g>
  <text
     xml:space="preserve"
     style="font-style:normal;font-variant:normal;font-weight:normal;font-stretch:normal;font-size:2191.97px;line-height:0;font-family:Comfortaa;-inkscape-font-specification:Comfortaa;text-align:center;letter-spacing:49.3195px;writing-mode:lr-tb;direction:ltr;text-anchor:middle;fill:#9ac1de;fill-opacity:1;stroke:none;stroke-width:657.593;stroke-linecap:round;stroke-linejoin:round;stroke-dasharray:none;stroke-opacity:1"
     x="10707.837"
     y="18410.045"
     id="text7"><tspan
       id="tspan7"
       style="font-style:normal;font-variant:normal;font-weight:normal;font-stretch:normal;font-family:Comfortaa;-inkscape-font-specification:Comfortaa;fill:#9ac1de;fill-opacity:1;stroke-width:657.593"
       x="10732.496"
       y="18410.045">excaliapp</tspan></text>
</svg>
